<?xml version="1.0" standalone="no"?>
<!DOCTYPE svg PUBLIC "-//W3C//DTD SVG 20010904//EN"
 "http://www.w3.org/TR/2001/REC-SVG-20010904/DTD/svg10.dtd">
<svg version="1.1" xmlns="http://www.w3.org/2000/svg"
 width="400.000000pt" height="400.000000pt" viewBox="0 0 400.000000 400.000000"
 preserveAspectRatio="xMidYMid meet">

<g transform="translate(0.000000,400.000000) scale(0.100000,-0.100000)"
fill="#000000" stroke="none">
<path d="M2133 3759 c-17 -5 -43 -23 -57 -40 l-26 -31 0 -333 0 -333 118 -138
117 -138 3 462 c2 399 0 467 -13 492 -27 51 -84 75 -142 59z"/>
<path d="M1513 3654 c-43 -22 -67 -60 -65 -109 0 -24 43 -155 109 -333 l108
-294 155 -89 c85 -49 158 -89 161 -89 4 0 -13 53 -37 118 -55 146 -82 220
-184 502 -45 123 -89 237 -98 252 -15 25 -75 58 -105 58 -6 0 -26 -8 -44 -16z"/>
<path d="M2740 3653 c-27 -10 -62 -47 -76 -81 -37 -89 -207 -569 -206 -583 0
-14 18 -64 82 -234 11 -27 24 -63 31 -80 l11 -30 20 55 c23 62 42 113 193 529
118 324 121 340 67 394 -29 28 -89 44 -122 30z"/>
<path d="M956 3339 c-43 -38 -56 -87 -33 -133 26 -52 417 -510 442 -517 39
-11 336 -61 340 -57 6 7 -585 704 -612 720 -44 28 -96 23 -137 -13z"/>
<path d="M3258 3359 c-15 -6 -75 -68 -141 -147 -63 -75 -155 -186 -206 -246
l-91 -109 0 -186 1 -186 22 26 c12 14 114 135 227 270 112 134 235 279 272
322 88 103 101 151 59 216 -16 25 -68 52 -98 50 -10 0 -30 -5 -45 -10z"/>
<path d="M573 2910 c-32 -13 -63 -68 -63 -113 0 -29 8 -45 33 -71 17 -19 154
-104 302 -189 l270 -155 178 31 c97 18 177 34 177 38 0 3 -78 50 -172 104 -95
55 -276 159 -403 232 -237 137 -262 147 -322 123z"/>
<path d="M2740 2358 c-74 -50 -100 -132 -66 -212 26 -63 110 -105 182 -91 58
10 120 77 129 137 9 58 -20 126 -68 160 -47 34 -132 37 -177 6z"/>
<path d="M3471 2363 c-64 -32 -101 -119 -82 -191 11 -38 68 -102 102 -114 36
-13 -97 -116 -206 -159 l-60 -24 -1445 -5 c-1359 -5 -1447 -6 -1471 -23 -68
-46 -66 -155 3 -197 33 -20 46 -20 1493 -18 l1460 3 63 22 c80 27 142 75 181
138 32 53 61 155 61 217 0 32 5 40 33 54 132 67 146 212 28 291 -41 28 -110
30 -160 6z"/>
<path d="M324 2351 c-62 -38 -70 -129 -17 -183 26 -26 47 -31 283 -73 140 -24
289 -51 331 -58 l76 -14 156 91 c86 50 153 93 149 96 -4 4 -131 28 -282 54
-151 26 -297 51 -325 57 -292 55 -325 58 -371 30z"/>
<path d="M446 1169 c-30 -35 -32 -58 -11 -98 16 -32 33 -41 78 -41 39 1 63 18
77 54 21 57 -22 116 -85 116 -25 0 -40 -8 -59 -31z"/>
<path d="M1815 1175 c-31 -30 -33 -82 -4 -119 16 -21 29 -26 64 -26 35 0 48 5
64 26 47 60 10 144 -64 144 -25 0 -44 -8 -60 -25z"/>
<path d="M2534 1176 c-60 -51 -21 -146 58 -146 79 0 114 78 62 139 -33 39 -80
42 -120 7z"/>
<path d="M700 785 l0 -326 58 3 57 3 3 323 2 322 -60 0 -60 0 0 -325z"/>
<path d="M1490 1026 l0 -85 -37 -3 -38 -3 0 -50 1 -50 37 3 37 4 0 -137 c0
-190 19 -227 123 -241 66 -9 73 -5 69 53 -3 46 -6 50 -35 59 l-32 9 -3 128 -3
129 38 -4 38 -3 0 50 0 50 -37 3 -38 3 0 85 0 84 -60 0 -60 0 0 -84z"/>
<path d="M1089 941 c-98 -19 -159 -98 -167 -215 -10 -168 59 -256 210 -264 70
-4 122 8 175 40 35 21 35 26 -5 76 l-18 23 -48 -22 c-67 -29 -140 -23 -173 15
-45 53 -39 56 138 56 l162 0 -6 69 c-10 120 -70 199 -167 220 -28 6 -54 10
-58 10 -4 -1 -23 -4 -43 -8z m113 -115 c22 -16 49 -67 42 -78 -3 -4 -50 -8
-106 -8 l-100 0 6 28 c11 43 50 72 99 72 23 0 50 -7 59 -14z"/>
<path d="M2971 939 c-18 -4 -44 -13 -58 -20 -19 -10 -32 -10 -73 3 l-50 16 0
-239 0 -240 58 3 57 3 5 163 c4 147 7 165 24 178 26 18 76 17 101 -2 18 -13
20 -30 25 -177 l5 -162 58 -3 57 -3 0 156 c0 152 1 156 25 180 34 35 86 34
114 -1 19 -24 21 -40 21 -181 l0 -154 58 3 57 3 0 170 c0 153 -2 174 -21 210
-46 87 -176 126 -257 76 -20 -12 -38 -27 -41 -34 -3 -8 -8 -7 -16 5 -23 37
-94 59 -149 47z"/>
<path d="M450 700 l0 -241 58 3 57 3 3 238 2 237 -60 0 -60 0 0 -240z"/>
<path d="M1820 700 l0 -240 55 0 55 0 0 240 0 240 -55 0 -55 0 0 -240z"/>
<path d="M2137 919 c-48 -25 -77 -72 -77 -124 0 -85 41 -120 155 -136 44 -6
86 -15 93 -21 17 -14 15 -43 -4 -59 -22 -18 -110 -15 -159 5 l-40 17 -32 -38
c-17 -20 -29 -41 -26 -46 24 -39 194 -69 272 -47 91 24 140 110 110 194 -20
57 -52 76 -154 91 -101 15 -125 34 -88 70 13 13 27 16 62 11 142 -20 139 -21
152 7 26 58 -41 97 -162 97 -44 -1 -76 -7 -102 -21z"/>
<path d="M2532 703 l3 -238 58 -3 57 -3 0 241 0 240 -60 0 -60 0 2 -237z"/>
<path d="M2145 334 c-41 -55 -45 -87 -10 -110 35 -23 56 -12 111 58 86 108 85
98 5 98 l-70 0 -36 -46z"/>
</g>
</svg>
