<?xml version="1.0" standalone="no"?>
<!DOCTYPE svg PUBLIC "-//W3C//DTD SVG 20010904//EN"
 "http://www.w3.org/TR/2001/REC-SVG-20010904/DTD/svg10.dtd">
<svg version="1.1" xmlns="http://www.w3.org/2000/svg"
 width="555.000000pt" height="237.000000pt" viewBox="0 0 555.000000 237.000000"
 preserveAspectRatio="xMidYMid meet">

<g transform="translate(0.000000,237.000000) scale(0.100000,-0.100000)"
fill="#000000" stroke="none">
<path d="M2716 2289 c-35 -28 -37 -95 -3 -127 55 -51 147 -12 147 63 0 74 -84
111 -144 64z"/>
<path d="M2640 2085 c0 -8 7 -15 15 -15 20 0 47 -44 43 -72 -2 -17 -11 -24
-38 -29 -83 -13 -166 -77 -201 -153 -22 -50 -25 -152 -5 -200 23 -55 85 -115
168 -163 l78 -46 0 -151 c0 -121 -3 -156 -16 -174 -8 -12 -22 -22 -30 -22 -8
0 -14 -4 -14 -10 0 -6 52 -10 135 -10 83 0 135 4 135 10 0 6 -6 10 -13 10 -8
0 -21 8 -30 18 -14 15 -17 40 -17 130 0 62 3 112 8 112 21 -1 108 -73 133
-110 29 -43 34 -67 30 -125 -9 -98 -120 -173 -240 -162 -126 11 -235 88 -288
203 -13 30 -29 54 -34 54 -12 0 -12 -267 0 -274 4 -3 16 3 26 14 25 28 74 25
167 -8 l76 -27 -19 -24 c-34 -42 -24 -103 22 -127 22 -11 29 -22 29 -44 l0
-30 -1330 0 c-1176 0 -1330 -2 -1330 -15 0 -13 301 -15 2650 -15 2349 0 2650
2 2650 15 0 13 -152 15 -1305 15 -718 0 -1305 2 -1305 5 0 3 16 29 35 58 38
56 44 99 20 134 -14 20 -13 22 25 28 64 11 156 62 199 111 93 105 93 248 1
364 -41 52 -80 78 -275 186 -179 98 -248 156 -259 217 -8 43 10 91 47 125 26
25 96 54 109 45 5 -2 8 -68 8 -147 l0 -142 73 -41 72 -40 5 244 c5 252 7 262
48 263 6 0 12 7 12 15 0 13 -22 15 -135 15 -113 0 -135 -2 -135 -15z"/>
<path d="M3025 1949 c-17 -27 -58 -28 -117 -4 -34 13 -19 -27 21 -62 42 -35
91 -122 91 -160 0 -14 6 -23 15 -23 13 0 15 21 15 130 0 119 -7 150 -25 119z"/>
<path d="M511 1711 c-14 -25 -5 -48 20 -56 27 -9 51 13 47 44 -4 34 -51 43
-67 12z"/>
<path d="M630 1715 c-26 -32 13 -81 48 -59 34 22 22 74 -18 74 -10 0 -23 -7
-30 -15z"/>
<path d="M1550 1715 c-26 -32 13 -81 48 -59 34 22 22 74 -18 74 -10 0 -23 -7
-30 -15z"/>
<path d="M118 1600 l-5 -30 54 0 53 0 0 -130 0 -130 35 0 34 0 3 128 3 127 53
3 c50 3 52 4 52 33 l0 29 -139 0 -139 0 -4 -30z"/>
<path d="M450 1523 c0 -119 13 -161 61 -196 40 -29 107 -33 161 -9 65 28 78
62 78 201 l0 111 -35 0 -35 0 0 -100 c0 -114 -13 -154 -56 -164 -39 -10 -81
11 -93 46 -6 17 -11 73 -11 124 l0 94 -35 0 -35 0 0 -107z"/>
<path d="M820 1470 l0 -160 35 0 35 0 0 55 0 55 40 0 c38 0 41 -3 71 -55 29
-52 33 -55 70 -55 21 0 39 2 39 5 0 3 -13 29 -30 57 l-29 52 30 26 c41 34 50
94 19 132 -28 36 -75 48 -187 48 l-93 0 0 -160z m210 80 c39 -39 2 -70 -84
-70 l-56 0 0 45 0 45 60 0 c46 0 64 -4 80 -20z"/>
<path d="M1180 1470 l0 -160 35 0 35 0 0 48 c0 41 5 53 30 77 16 16 32 27 34
24 2 -2 24 -37 50 -76 44 -71 47 -73 86 -73 22 0 40 3 40 6 0 3 -27 47 -60 98
-33 51 -60 97 -60 102 0 4 23 32 52 61 l52 53 -44 0 c-43 0 -48 -3 -112 -72
l-67 -73 -1 73 0 72 -35 0 -35 0 0 -160z"/>
<path d="M1550 1628 c0 -2 -2 -74 -3 -161 l-2 -157 38 0 37 0 0 160 0 160 -35
0 c-19 0 -35 -1 -35 -2z"/>
<path d="M1660 1624 c0 -3 29 -46 65 -96 64 -89 65 -92 65 -155 l0 -63 40 0
40 0 0 65 c0 64 1 66 65 155 36 49 65 92 65 95 0 3 -18 5 -39 5 -38 0 -41 -3
-83 -70 -24 -38 -45 -69 -48 -69 -3 0 -24 31 -48 69 -42 67 -45 70 -83 70 -21
0 -39 -3 -39 -6z"/>
<path d="M2040 1470 l0 -160 130 0 130 0 0 30 0 30 -95 0 -95 0 0 40 0 40 56
0 c54 0 55 0 52 28 -3 25 -7 27 -55 30 -51 3 -53 4 -53 33 l0 29 90 0 90 0 0
30 0 30 -125 0 -125 0 0 -160z"/>
<path d="M3260 1470 l0 -162 120 4 c115 3 121 4 147 30 36 36 37 92 4 119 -22
18 -23 21 -7 37 25 28 20 75 -10 103 -23 22 -35 24 -140 28 l-114 3 0 -162z
m200 85 c25 -30 4 -45 -65 -45 l-65 0 0 30 c0 30 0 30 59 30 40 0 63 -5 71
-15z m14 -127 c21 -35 -4 -53 -78 -56 l-66 -3 0 41 0 41 66 -3 c51 -2 70 -7
78 -20z"/>
<path d="M3643 1470 l-71 -160 39 0 c35 0 40 4 53 35 l15 35 68 0 69 0 13 -35
c11 -32 16 -35 52 -35 21 0 39 2 39 4 0 2 -31 72 -68 157 -68 154 -68 154
-103 157 l-34 3 -72 -161z m130 13 l17 -43 -44 0 -44 0 21 50 c23 55 26 55 50
-7z"/>
<path d="M3960 1470 l0 -160 35 0 34 0 3 100 3 100 78 -100 c72 -92 81 -100
112 -100 l35 0 0 160 0 160 -35 0 -34 0 -3 -102 -3 -103 -79 103 c-72 93 -82
102 -112 102 l-34 0 0 -160z"/>
<path d="M4330 1470 l0 -160 35 0 c35 0 35 1 35 43 0 36 6 49 34 76 l34 33 47
-76 47 -76 72 0 72 0 13 35 13 36 71 -3 c71 -3 71 -3 81 -35 8 -31 12 -33 51
-33 l42 0 -71 160 -71 161 -35 -3 c-34 -3 -35 -4 -95 -140 -33 -75 -63 -139
-66 -142 -6 -6 -119 157 -119 171 0 4 23 31 52 60 l52 53 -39 0 c-36 0 -47 -7
-112 -72 l-73 -72 0 72 0 72 -35 0 -35 0 0 -160z m489 33 c8 -21 16 -44 18
-50 4 -9 -7 -13 -37 -13 -30 0 -41 4 -37 13 2 6 10 29 18 50 7 20 16 37 19 37
3 0 12 -17 19 -37z"/>
<path d="M5051 1617 c-41 -21 -64 -60 -56 -96 8 -37 38 -59 97 -72 69 -15 98
-30 98 -50 0 -10 -10 -23 -21 -30 -27 -14 -97 -4 -120 17 -15 13 -20 13 -45
-9 l-28 -25 34 -20 c66 -41 178 -40 226 1 14 13 27 37 30 58 9 54 -23 86 -110
107 -73 19 -104 44 -76 62 22 14 71 12 103 -5 25 -13 29 -12 54 9 l26 23 -45
21 c-50 25 -129 29 -167 9z"/>
<path d="M5330 1470 l0 -160 35 0 35 0 0 160 0 160 -35 0 -35 0 0 -160z"/>
<path d="M1465 466 c-20 -15 -15 -43 10 -52 18 -7 45 12 45 32 0 22 -35 35
-55 20z"/>
<path d="M1995 466 c-20 -15 -15 -43 10 -52 18 -7 45 12 45 32 0 22 -35 35
-55 20z"/>
<path d="M1344 455 c-10 -24 19 -49 45 -40 16 5 21 13 19 28 -4 28 -55 37 -64
12z"/>
<path d="M1637 457 c-16 -11 -17 -30 -15 -171 3 -157 3 -159 26 -161 l22 -2 0
174 c0 95 -4 173 -8 173 -5 0 -16 -6 -25 -13z"/>
<path d="M1788 459 c-12 -6 -18 -22 -18 -44 0 -27 -4 -34 -22 -37 -15 -2 -23
-10 -23 -23 0 -13 8 -21 23 -23 21 -3 22 -8 22 -92 0 -67 4 -92 16 -104 18
-19 75 -21 92 -4 22 22 13 36 -20 34 l-33 -1 -3 83 -3 82 36 0 c31 0 35 3 35
25 0 22 -4 25 -35 25 -35 0 -35 0 -35 45 0 47 -4 51 -32 34z"/>
<path d="M2097 463 c-14 -14 -6 -42 14 -48 26 -8 54 16 46 39 -6 16 -48 22
-60 9z"/>
<path d="M3868 459 c-16 -9 -18 -28 -18 -173 l0 -164 25 2 25 1 0 173 c0 94
-3 172 -7 172 -5 0 -16 -5 -25 -11z"/>
<path d="M967 293 c2 -167 2 -167 25 -167 20 -1 23 5 26 49 3 40 9 56 35 83
17 18 35 31 39 30 5 -2 32 -39 61 -82 43 -66 57 -80 80 -81 15 0 27 1 27 4 0
2 -30 51 -66 109 l-67 104 59 59 58 59 -34 0 c-31 -1 -44 -10 -110 -84 l-75
-83 -3 83 c-3 84 -3 84 -30 84 l-27 0 2 -167z"/>
<path d="M2537 448 c4 -7 36 -56 71 -108 62 -92 63 -95 61 -154 -3 -58 -2 -60
22 -60 23 -1 24 3 29 69 5 67 8 75 72 168 l67 97 -34 0 c-30 0 -37 -6 -80 -75
-25 -41 -49 -75 -53 -75 -4 0 -27 34 -51 75 -42 70 -47 75 -78 75 -25 0 -32
-3 -26 -12z"/>
<path d="M1320 279 c0 -98 1 -101 29 -130 31 -31 75 -38 112 -18 11 6 26 7 32
2 7 -5 21 -8 32 -8 19 0 20 8 23 128 l3 128 -28 -3 -28 -3 -3 -90 c-2 -77 -5
-92 -23 -107 -28 -23 -54 -23 -79 2 -17 17 -20 33 -20 110 0 89 0 90 -25 90
l-25 0 0 -101z"/>
<path d="M1950 293 c0 -113 18 -154 73 -167 27 -7 48 -6 70 2 17 6 33 8 36 4
4 -5 16 -8 29 -8 22 0 22 2 22 128 l0 128 -25 0 c-25 0 -25 -1 -25 -90 0 -77
-3 -93 -20 -110 -25 -25 -51 -25 -79 -3 -18 16 -21 31 -23 108 l-3 90 -27 3
-28 3 0 -88z"/>
<path d="M2254 367 c-2 -7 -3 -65 -2 -127 l3 -114 25 0 c25 0 25 1 28 92 3 85
5 93 27 108 15 10 32 13 46 9 22 -7 39 7 39 33 0 15 -63 16 -91 2 -13 -7 -19
-7 -19 0 0 15 -50 12 -56 -3z"/>
<path d="M2883 370 c-15 -6 -21 -15 -17 -25 5 -12 17 -14 60 -9 59 7 84 -4 84
-38 0 -16 -6 -19 -32 -18 -76 4 -99 0 -123 -25 -33 -33 -32 -70 4 -106 32 -31
83 -39 122 -19 11 6 25 8 32 3 6 -4 20 -8 29 -8 16 -2 18 9 18 106 0 104 -1
108 -26 128 -29 23 -108 28 -151 11z m127 -155 c0 -17 -9 -29 -30 -40 -37 -19
-59 -19 -82 2 -39 35 -14 63 59 63 50 0 53 -2 53 -25z"/>
<path d="M3107 363 c4 -10 28 -67 54 -127 l48 -108 -19 -39 c-26 -50 -25 -55
7 -53 24 1 32 12 93 155 36 85 69 162 73 172 5 14 1 17 -22 17 -26 0 -31 -6
-66 -95 -21 -53 -40 -93 -44 -90 -3 4 -20 45 -37 93 -29 82 -33 87 -62 90 -27
3 -31 1 -25 -15z"/>
<path d="M3420 253 l0 -128 25 0 25 0 0 128 0 127 -25 0 -25 0 0 -127z"/>
<path d="M3550 375 c-1 -3 -1 -60 -1 -127 0 -121 0 -122 23 -122 22 -1 23 3
28 93 5 99 17 121 65 121 41 0 54 -29 57 -125 3 -88 3 -89 28 -90 24 0 25 4
28 60 7 134 -22 195 -93 195 -20 0 -46 -5 -58 -11 -16 -9 -22 -9 -25 0 -3 10
-52 16 -52 6z"/>
<path d="M4013 370 c-15 -6 -21 -15 -17 -25 5 -12 17 -14 60 -9 59 7 84 -4 84
-38 0 -16 -6 -19 -32 -18 -76 4 -99 0 -123 -25 -33 -33 -32 -70 4 -106 34 -33
91 -40 128 -14 17 12 22 12 26 1 3 -7 16 -12 29 -11 23 2 23 4 23 104 0 100
-1 103 -28 127 -22 19 -39 24 -80 23 -29 0 -62 -4 -74 -9z m127 -155 c0 -35
-58 -64 -95 -47 -63 29 -38 72 41 72 51 0 54 -1 54 -25z"/>
<path d="M4264 367 c-2 -7 -3 -65 -2 -127 l3 -114 25 0 c25 0 25 1 28 92 3 85
5 93 27 108 15 10 32 13 46 9 22 -7 39 7 39 33 0 15 -63 16 -90 2 -13 -7 -21
-7 -25 0 -9 14 -45 12 -51 -3z"/>
<path d="M4482 253 c3 -126 3 -127 26 -127 23 0 23 1 23 124 l1 125 -27 3 -26
3 3 -128z"/>
</g>
</svg>
