<?xml version="1.0" standalone="no"?>
<!DOCTYPE svg PUBLIC "-//W3C//DTD SVG 20010904//EN"
 "http://www.w3.org/TR/2001/REC-SVG-20010904/DTD/svg10.dtd">
<svg version="1.1" xmlns="http://www.w3.org/2000/svg"
 width="697.000000pt" height="960.000000pt" viewBox="0 0 697.000000 960.000000"
 preserveAspectRatio="xMidYMid meet">
<metadata>
Created by potrace 1.13, written by Peter Selinger 2001-2015
</metadata>
<g transform="translate(0.000000,960.000000) scale(0.100000,-0.100000)"
fill="#000000" stroke="none">
<path d="M10 6630 l0 -2970 2480 0 2480 0 0 1980 0 1980 -1485 0 -1485 0 0
-990 0 -990 495 0 495 0 0 498 0 497 495 0 495 0 0 -995 0 -995 -1490 3 -1490
2 0 1985 0 1985 2483 -2 2482 -3 3 -1482 2 -1483 495 0 495 0 0 1975 0 1975
-3475 0 -3475 0 0 -2970z"/>
<path d="M2980 3000 l0 -230 220 0 220 0 0 230 0 229 -220 0 -220 0 0 -229z"/>
<path d="M3673 3223 c-10 -3 -13 -59 -13 -229 l0 -224 218 2 217 3 3 219 c2
169 -1 221 -10 228 -14 8 -395 10 -415 1z"/>
<path d="M0 2380 l0 -210 130 0 130 0 0 -885 0 -885 -130 0 -130 0 0 -200 0
-200 520 0 520 0 0 200 0 200 -140 0 -140 0 0 400 c0 244 4 400 9 400 6 0 16
-8 23 -17 7 -10 101 -101 208 -203 192 -182 285 -270 488 -465 56 -54 102
-102 102 -107 0 -4 -54 -8 -120 -8 l-120 0 0 -200 0 -200 550 0 550 0 0 200 0
200 -110 0 -110 0 -352 332 c-194 182 -384 362 -423 398 -38 37 -99 95 -135
128 l-65 62 65 62 c69 66 92 87 565 522 l290 266 207 0 207 0 4 -727 c4 -708
4 -731 26 -828 43 -194 95 -289 236 -430 83 -83 115 -108 185 -143 l86 -42
389 0 390 0 64 30 c215 102 382 304 443 533 22 80 22 101 28 842 l5 760 201 3
202 2 303 -562 c167 -310 320 -594 341 -633 l37 -70 1 -252 0 -253 -140 0
-140 0 0 -200 0 -200 530 0 530 0 0 200 0 200 -140 0 -140 0 0 249 0 250 194
363 c107 200 259 485 339 633 l145 270 126 3 126 3 0 209 0 210 -492 -2 -493
-3 0 -205 0 -205 118 -3 c107 -2 118 -4 112 -20 -21 -60 -418 -833 -424 -826
-5 5 -104 197 -220 426 l-212 417 118 3 118 3 0 205 0 205 -932 3 -933 2 -5
-22 c-3 -13 -4 -106 -3 -208 l3 -185 118 -3 118 -3 -4 -702 c-3 -591 -6 -711
-19 -758 -65 -243 -327 -366 -576 -271 -103 40 -182 120 -231 234 l-26 63 -3
718 -3 717 116 0 115 0 0 210 0 210 -993 -2 -992 -3 0 -205 0 -205 108 -3 c59
-1 107 -7 107 -12 0 -4 -4 -10 -9 -12 -5 -1 -84 -75 -177 -163 -216 -205 -541
-512 -576 -544 l-28 -25 0 377 0 376 138 3 137 3 0 205 0 205 -517 3 -518 2 0
-210z"/>
</g>
</svg>
